<svg width="859" height="316" xmlns="http://www.w3.org/2000/svg" xmlns:xlink="http://www.w3.org/1999/xlink" overflow="hidden"><defs><clipPath id="clip0"><rect x="211" y="206" width="859" height="316"/></clipPath></defs><g clip-path="url(#clip0)" transform="translate(-211 -206)"><path d="M213.333 208.802 426.667 208.802 426.667 247.735 213.333 247.735Z" fill="#4472C4" fill-rule="evenodd"/><path d="M426.667 208.802 640 208.802 640 247.735 426.667 247.735Z" fill="#4472C4" fill-rule="evenodd"/><path d="M640 208.802 853.333 208.802 853.333 247.735 640 247.735Z" fill="#4472C4" fill-rule="evenodd"/><path d="M853.333 208.802 1066.67 208.802 1066.67 247.735 853.333 247.735Z" fill="#4472C4" fill-rule="evenodd"/><path d="M213.333 247.735 426.667 247.735 426.667 286.669 213.333 286.669Z" fill="#CFD5EA" fill-rule="evenodd"/><path d="M426.667 247.735 640 247.735 640 286.669 426.667 286.669Z" fill="#CFD5EA" fill-rule="evenodd"/><path d="M640 247.735 853.333 247.735 853.333 286.669 640 286.669Z" fill="#CFD5EA" fill-rule="evenodd"/><path d="M853.333 247.735 1066.67 247.735 1066.67 286.669 853.333 286.669Z" fill="#CFD5EA" fill-rule="evenodd"/><path d="M213.333 286.669 426.667 286.669 426.667 325.602 213.333 325.602Z" fill="#E9EBF5" fill-rule="evenodd"/><path d="M426.667 286.669 640 286.669 640 325.602 426.667 325.602Z" fill="#E9EBF5" fill-rule="evenodd"/><path d="M640 286.669 853.333 286.669 853.333 325.602 640 325.602Z" fill="#E9EBF5" fill-rule="evenodd"/><path d="M853.333 286.669 1066.67 286.669 1066.67 325.602 853.333 325.602Z" fill="#E9EBF5" fill-rule="evenodd"/><path d="M213.333 325.602 426.667 325.602 426.667 364.535 213.333 364.535Z" fill="#CFD5EA" fill-rule="evenodd"/><path d="M426.667 325.602 640 325.602 640 364.535 426.667 364.535Z" fill="#CFD5EA" fill-rule="evenodd"/><path d="M640 325.602 853.333 325.602 853.333 364.535 640 364.535Z" fill="#CFD5EA" fill-rule="evenodd"/><path d="M853.333 325.602 1066.67 325.602 1066.67 364.535 853.333 364.535Z" fill="#CFD5EA" fill-rule="evenodd"/><path d="M213.333 364.535 426.667 364.535 426.667 403.469 213.333 403.469Z" fill="#E9EBF5" fill-rule="evenodd"/><path d="M426.667 364.535 640 364.535 640 403.469 426.667 403.469Z" fill="#E9EBF5" fill-rule="evenodd"/><path d="M640 364.535 853.333 364.535 853.333 403.469 640 403.469Z" fill="#E9EBF5" fill-rule="evenodd"/><path d="M853.333 364.535 1066.67 364.535 1066.67 403.469 853.333 403.469Z" fill="#E9EBF5" fill-rule="evenodd"/><path d="M213.333 403.469 426.667 403.469 426.667 442.402 213.333 442.402Z" fill="#CFD5EA" fill-rule="evenodd"/><path d="M426.667 403.469 640 403.469 640 442.402 426.667 442.402Z" fill="#CFD5EA" fill-rule="evenodd"/><path d="M640 403.469 853.333 403.469 853.333 442.402 640 442.402Z" fill="#CFD5EA" fill-rule="evenodd"/><path d="M853.333 403.469 1066.67 403.469 1066.67 442.402 853.333 442.402Z" fill="#CFD5EA" fill-rule="evenodd"/><path d="M426.667 208.135 426.667 443.069" stroke="#FFFFFF" stroke-width="1.33333" stroke-linejoin="round" stroke-miterlimit="10" fill="none" fill-rule="evenodd"/><path d="M640 208.135 640 443.069" stroke="#FFFFFF" stroke-width="1.33333" stroke-linejoin="round" stroke-miterlimit="10" fill="none" fill-rule="evenodd"/><path d="M853.333 208.135 853.333 443.069" stroke="#FFFFFF" stroke-width="1.33333" stroke-linejoin="round" stroke-miterlimit="10" fill="none" fill-rule="evenodd"/><path d="M212.667 247.735 1067.33 247.735" stroke="#FFFFFF" stroke-width="4" stroke-linejoin="round" stroke-miterlimit="10" fill="none" fill-rule="evenodd"/><path d="M212.667 286.669 1067.33 286.669" stroke="#FFFFFF" stroke-width="1.33333" stroke-linejoin="round" stroke-miterlimit="10" fill="none" fill-rule="evenodd"/><path d="M212.667 325.602 1067.33 325.602" stroke="#FFFFFF" stroke-width="1.33333" stroke-linejoin="round" stroke-miterlimit="10" fill="none" fill-rule="evenodd"/><path d="M212.667 364.535 1067.33 364.535" stroke="#FFFFFF" stroke-width="1.33333" stroke-linejoin="round" stroke-miterlimit="10" fill="none" fill-rule="evenodd"/><path d="M212.667 403.469 1067.33 403.469" stroke="#FFFFFF" stroke-width="1.33333" stroke-linejoin="round" stroke-miterlimit="10" fill="none" fill-rule="evenodd"/><path d="M213.333 208.135 213.333 443.069" stroke="#FFFFFF" stroke-width="1.33333" stroke-linejoin="round" stroke-miterlimit="10" fill="none" fill-rule="evenodd"/><path d="M1066.67 208.135 1066.67 443.069" stroke="#FFFFFF" stroke-width="1.33333" stroke-linejoin="round" stroke-miterlimit="10" fill="none" fill-rule="evenodd"/><path d="M212.667 208.802 1067.33 208.802" stroke="#FFFFFF" stroke-width="1.33333" stroke-linejoin="round" stroke-miterlimit="10" fill="none" fill-rule="evenodd"/><path d="M212.667 442.402 1067.33 442.402" stroke="#FFFFFF" stroke-width="1.33333" stroke-linejoin="round" stroke-miterlimit="10" fill="none" fill-rule="evenodd"/><text fill="#FFFFFF" font-family="PMingLiU,PMingLiU_MSFontService,sans-serif" font-weight="700" font-size="24" transform="translate(296 237)">員工<tspan font-size="24" x="181.833" y="0">身高</tspan><tspan font-family="Calibri,Calibri_MSFontService,sans-serif" font-size="24" x="229.833" y="0">(</tspan>公分<tspan font-family="Calibri,Calibri_MSFontService,sans-serif" font-size="24" x="285.333" y="0">)</tspan><tspan font-size="24" x="395.167" y="0">收入</tspan><tspan font-family="Calibri,Calibri_MSFontService,sans-serif" font-size="24" x="443.167" y="0">(</tspan>千元<tspan font-family="Calibri,Calibri_MSFontService,sans-serif" font-size="24" x="498.667" y="0">)</tspan><tspan font-size="24" x="628" y="0">適應值</tspan><tspan fill="#000000" font-family="Calibri,Calibri_MSFontService,sans-serif" font-weight="400" font-size="24" x="17.0833" y="38">A</tspan><tspan fill="#000000" font-family="Calibri,Calibri_MSFontService,sans-serif" font-weight="400" font-size="24" x="219.083" y="38">185</tspan><tspan fill="#000000" font-family="Calibri,Calibri_MSFontService,sans-serif" font-weight="400" font-size="24" x="438.5" y="38">80</tspan><tspan fill="#000000" font-family="Calibri,Calibri_MSFontService,sans-serif" font-weight="400" font-size="24" x="636.667" y="38">15</tspan><tspan fill="#000000" font-family="Calibri,Calibri_MSFontService,sans-serif" font-weight="400" font-size="24" x="661" y="38">3.5</tspan><tspan fill="#000000" font-family="Calibri,Calibri_MSFontService,sans-serif" font-weight="400" font-size="24" x="17.4999" y="77">B</tspan><tspan fill="#000000" font-family="Calibri,Calibri_MSFontService,sans-serif" font-weight="400" font-size="24" x="219.083" y="77">165</tspan><tspan fill="#000000" font-family="Calibri,Calibri_MSFontService,sans-serif" font-weight="400" font-size="24" x="438.5" y="77">60</tspan><tspan fill="#000000" font-family="Calibri,Calibri_MSFontService,sans-serif" font-weight="400" font-size="24" x="636.667" y="77">13</tspan><tspan fill="#000000" font-family="Calibri,Calibri_MSFontService,sans-serif" font-weight="400" font-size="24" x="661" y="77">3.5</tspan><tspan fill="#000000" font-family="Calibri,Calibri_MSFontService,sans-serif" font-weight="400" font-size="24" x="17.5833" y="116">C</tspan><tspan fill="#000000" font-family="Calibri,Calibri_MSFontService,sans-serif" font-weight="400" font-size="24" x="219.083" y="116">173</tspan><tspan fill="#000000" font-family="Calibri,Calibri_MSFontService,sans-serif" font-weight="400" font-size="24" x="438.5" y="116">70</tspan><tspan fill="#000000" font-family="Calibri,Calibri_MSFontService,sans-serif" font-weight="400" font-size="24" x="636.667" y="116">14</tspan><tspan fill="#000000" font-family="Calibri,Calibri_MSFontService,sans-serif" font-weight="400" font-size="24" x="661" y="116">2.1</tspan><tspan fill="#000000" font-family="Calibri,Calibri_MSFontService,sans-serif" font-weight="400" font-size="24" x="16.5833" y="155">D</tspan><tspan fill="#000000" font-family="Calibri,Calibri_MSFontService,sans-serif" font-weight="400" font-size="24" x="219.083" y="155">160</tspan><tspan fill="#000000" font-family="Calibri,Calibri_MSFontService,sans-serif" font-weight="400" font-size="24" x="438.5" y="155">22</tspan><tspan fill="#000000" font-family="Calibri,Calibri_MSFontService,sans-serif" font-weight="400" font-size="24" x="636.667" y="155">1</tspan><tspan fill="#000000" font-family="Calibri,Calibri_MSFontService,sans-serif" font-weight="400" font-size="24" x="648.833" y="155">18.6</tspan><tspan fill="#000000" font-family="Calibri,Calibri_MSFontService,sans-serif" font-weight="400" font-size="24" x="18.1666" y="194">E</tspan><tspan fill="#000000" font-family="Calibri,Calibri_MSFontService,sans-serif" font-weight="400" font-size="24" x="219.083" y="194">180</tspan><tspan fill="#000000" font-family="Calibri,Calibri_MSFontService,sans-serif" font-weight="400" font-size="24" x="438.5" y="194">60</tspan><tspan fill="#000000" font-family="Calibri,Calibri_MSFontService,sans-serif" font-weight="400" font-size="24" x="645.75" y="194">144</tspan><tspan fill="#000000" font-weight="400" font-size="24" x="-70.0135" y="264">令身高權重</tspan><tspan fill="#000000" font-family="Calibri,Calibri_MSFontService,sans-serif" font-weight="400" font-size="24" x="49.9865" y="264">w1=0.7</tspan><tspan fill="#000000" font-weight="400" font-size="24" x="121.653" y="264">；</tspan><tspan fill="#000000" font-weight="400" font-size="24" x="145.653" y="264">收入權</tspan><tspan fill="#000000" font-weight="400" font-size="24" x="217.653" y="264">重</tspan><tspan fill="#000000" font-family="Calibri,Calibri_MSFontService,sans-serif" font-weight="400" font-size="24" x="241.653" y="264">w2=0.3</tspan><tspan fill="#000000" font-weight="400" font-size="24" x="313.32" y="264">，</tspan><tspan fill="#000000" font-weight="400" font-size="24" x="337.32" y="264">則適應</tspan><tspan fill="#000000" font-weight="400" font-size="24" x="409.32" y="264">值結果如上，可知</tspan><tspan fill="#000000" font-family="Calibri,Calibri_MSFontService,sans-serif" font-weight="400" font-size="24" x="601.32" y="264">A</tspan><tspan fill="#000000" font-weight="400" font-size="24" x="615.153" y="264">最好</tspan><tspan fill="#000000" font-family="Calibri,Calibri_MSFontService,sans-serif" font-weight="400" font-size="24" x="663.153" y="264">(</tspan><tspan fill="#000000" font-weight="400" font-size="24" x="670.486" y="264">高富</tspan><tspan fill="#000000" font-family="Calibri,Calibri_MSFontService,sans-serif" font-weight="400" font-size="24" x="718.486" y="264">)</tspan></text><path d="M1010.5 265.757 1017.76 265.757 1020 258.5 1022.24 265.757 1029.5 265.757 1023.63 270.243 1025.87 277.5 1020 273.015 1014.13 277.5 1016.37 270.243Z" stroke="#FF0000" stroke-width="1.33333" stroke-miterlimit="8" fill="#FF0000" fill-rule="evenodd"/></g></svg>