<svg width="540" height="399" xmlns="http://www.w3.org/2000/svg" xmlns:xlink="http://www.w3.org/1999/xlink" overflow="hidden"><defs><clipPath id="clip0"><rect x="133" y="167" width="540" height="399"/></clipPath></defs><g clip-path="url(#clip0)" transform="translate(-133 -167)"><path d="M0.333333-1.54304e-07 0.333435 220.13-0.333231 220.13-0.333333 1.54304e-07ZM4.0001 218.797 0.000104987 226.797-3.9999 218.797Z" fill="#4472C4" transform="matrix(1 0 0 -1 262.5 436.297)"/><path d="M262.5 436.167 482.605 436.167 482.605 436.833 262.5 436.833ZM481.272 432.5 489.272 436.5 481.272 440.5Z" fill="#4472C4"/><text font-family="PMingLiU,PMingLiU_MSFontService,sans-serif" font-weight="400" font-size="24" transform="translate(498.377 444)">車資<tspan font-family="Calibri,Calibri_MSFontService,sans-serif" font-size="24" x="48" y="0">(</tspan><tspan font-size="24" x="55.3334" y="0">元</tspan><tspan font-family="Calibri,Calibri_MSFontService,sans-serif" font-size="24" x="79.3334" y="0">)</tspan><tspan font-size="24" x="-292.339" y="-246">時</tspan>程<tspan font-family="Calibri,Calibri_MSFontService,sans-serif" font-size="24" x="-244.339" y="-246">(</tspan>分鐘<tspan font-family="Calibri,Calibri_MSFontService,sans-serif" font-size="24" x="-189.006" y="-246">)</tspan><tspan font-family="Calibri,Calibri_MSFontService,sans-serif" font-size="24" x="-261.962" y="18">(0, 0)</tspan><tspan font-family="Calibri,Calibri_MSFontService,sans-serif" font-size="24" x="-32.556" y="18">(0, 3)</tspan><tspan font-family="Calibri,Calibri_MSFontService,sans-serif" font-size="24" x="-292.339" y="-208">(3, 0)</tspan></text><path d="M330.5 360.5C330.5 356.082 333.858 352.5 338 352.5 342.142 352.5 345.5 356.082 345.5 360.5 345.5 364.918 342.142 368.5 338 368.5 333.858 368.5 330.5 364.918 330.5 360.5Z" stroke="#2F528F" stroke-width="1.33333" stroke-miterlimit="8" fill="#4472C4" fill-rule="evenodd"/><path d="M481.5 285C481.5 280.858 484.858 277.5 489 277.5 493.142 277.5 496.5 280.858 496.5 285 496.5 289.142 493.142 292.5 489 292.5 484.858 292.5 481.5 289.142 481.5 285Z" stroke="#2F528F" stroke-width="1.33333" stroke-miterlimit="8" fill="#4472C4" fill-rule="evenodd"/><path d="M406.5 209C406.5 204.858 409.858 201.5 414 201.5 418.142 201.5 421.5 204.858 421.5 209 421.5 213.142 418.142 216.5 414 216.5 409.858 216.5 406.5 213.142 406.5 209Z" stroke="#2F528F" stroke-width="1.33333" stroke-miterlimit="8" fill="#4472C4" fill-rule="evenodd"/><path d="M254.5 285C254.5 280.858 258.082 277.5 262.5 277.5 266.918 277.5 270.5 280.858 270.5 285 270.5 289.142 266.918 292.5 262.5 292.5 258.082 292.5 254.5 289.142 254.5 285Z" stroke="#2F528F" stroke-width="1.33333" stroke-miterlimit="8" fill="#4472C4" fill-rule="evenodd"/><path d="M406.5 436C406.5 431.858 409.858 428.5 414 428.5 418.142 428.5 421.5 431.858 421.5 436 421.5 440.142 418.142 443.5 414 443.5 409.858 443.5 406.5 440.142 406.5 436Z" stroke="#2F528F" stroke-width="1.33333" stroke-miterlimit="8" fill="#4472C4" fill-rule="evenodd"/><text font-family="Calibri,Calibri_MSFontService,sans-serif" font-weight="400" font-size="16" transform="translate(320.513 345)">(1, <tspan font-size="16" x="20.6667" y="0">1</tspan><tspan font-size="16" x="28.8333" y="0">)</tspan><tspan font-size="16" x="151.172" y="-75">(2, 3)</tspan><tspan font-size="16" x="75.5989" y="74">(0, 2)</tspan><tspan font-size="16" x="-107.104" y="-55">(2, 0)</tspan><tspan font-size="16" x="75.5989" y="-150">(3, 2)</tspan></text><path d="M0 0 70.2548 70.2547" stroke="#FF0000" stroke-width="2" stroke-miterlimit="8" stroke-dasharray="16 6" fill="none" fill-rule="evenodd" transform="matrix(-1 0 0 1 332.255 365)"/><text font-family="Calibri,Calibri_MSFontService,sans-serif" font-weight="400" font-size="24" transform="translate(148.566 545)">(1, 1)<tspan font-family="PMingLiU,PMingLiU_MSFontService,sans-serif" font-size="24" x="50.5" y="0">與理想解</tspan><tspan font-size="24" x="146.5" y="0">(0, 0)</tspan><tspan font-family="PMingLiU,PMingLiU_MSFontService,sans-serif" font-size="24" x="197" y="0">最近，是這五個方案裡最好的</tspan></text></g></svg>